<?xml version="1.0" encoding="UTF-8" standalone="no"?>
<!-- Created with Inkscape (http://www.inkscape.org/) -->

<svg
   version="1.1"
   id="svg2"
   xml:space="preserve"
   width="476"
   height="1402.6667"
   viewBox="0 0 476 1402.6667"
   sodipodi:docname="rule_vari.svg"
   inkscape:version="1.1.2 (0a00cf5339, 2022-02-04)"
   xmlns:inkscape="http://www.inkscape.org/namespaces/inkscape"
   xmlns:sodipodi="http://sodipodi.sourceforge.net/DTD/sodipodi-0.dtd"
   xmlns="http://www.w3.org/2000/svg"
   xmlns:svg="http://www.w3.org/2000/svg"><defs
     id="defs6" /><sodipodi:namedview
     id="namedview4"
     pagecolor="#ffffff"
     bordercolor="#666666"
     borderopacity="1.0"
     inkscape:pageshadow="2"
     inkscape:pageopacity="0.0"
     inkscape:pagecheckerboard="0"
     showgrid="false"
     inkscape:zoom="0.45912545"
     inkscape:cx="238.49691"
     inkscape:cy="701.33337"
     inkscape:window-width="1680"
     inkscape:window-height="994"
     inkscape:window-x="120"
     inkscape:window-y="32"
     inkscape:window-maximized="1"
     inkscape:current-layer="g8" /><g
     id="g8"
     inkscape:groupmode="layer"
     inkscape:label="rule_vari"
     transform="matrix(1.3333333,0,0,1.3333333,0,6.84e-5)"><g
       id="g10"><path
         d="M 0,0 H 357 V 1052 H 0 Z"
         style="fill:#ffffff;fill-opacity:1;fill-rule:nonzero;stroke:none"
         id="path12" /><path
         d="m 108.594,1012 c 0,0 -30,0 -30,0 -6,0 -12,6 -12,12 0,0 0,12 0,12 0,6 6,12 12,12 0,0 30,0 30,0 6,0 12,-6 12,-12 0,0 0,-12 0,-12 0,-6 -6,-12 -12,-12"
         style="fill:none;stroke:#a7d957;stroke-width:2;stroke-linecap:butt;stroke-linejoin:miter;stroke-miterlimit:10;stroke-dasharray:none;stroke-opacity:1"
         id="path14" /><text
         transform="translate(87.09375,1032.5)"
         style="font-variant:normal;font-weight:normal;font-size:9.99976px;font-family:'DejaVu Sans';-inkscape-font-specification:DejaVuSans;writing-mode:lr-tb;fill:#000000;fill-opacity:1;fill-rule:nonzero;stroke:none"
         id="text18"><tspan
           x="0 5.9898539 8.9797812"
           y="0"
           sodipodi:role="line"
           id="tspan16">all</tspan></text><path
         d="m 134.094,940 c 0,0 -81,0 -81,0 -6,0 -12,6 -12,12 0,0 0,12 0,12 0,6 6,12 12,12 0,0 81,0 81,0 6,0 12,-6 12,-12 0,0 0,-12 0,-12 0,-6 -6,-12 -12,-12"
         style="fill:none;stroke:#57d98b;stroke-width:2;stroke-linecap:butt;stroke-linejoin:miter;stroke-miterlimit:10;stroke-dasharray:none;stroke-opacity:1"
         id="path20" /><text
         transform="translate(49.09375,960.5)"
         style="font-variant:normal;font-weight:normal;font-size:9.99976px;font-family:'DejaVu Sans';-inkscape-font-specification:DejaVuSans;writing-mode:lr-tb;fill:#000000;fill-opacity:1;fill-rule:nonzero;stroke:none"
         id="text24"><tspan
           x="0 5.239872 11.229726 20.969488 26.979342 29.969269 35.959122 41.958977 47.208847 52.448719 58.438576 68.178337 74.178192 77.168114 83.167969"
           y="0"
           sodipodi:role="line"
           id="tspan22">combine_samples</tspan></text><path
         d="m 93.594,976.305 c 0,7.711 0,16.984 0,25.582"
         style="fill:none;stroke:#c0c0c0;stroke-width:2;stroke-linecap:butt;stroke-linejoin:miter;stroke-miterlimit:10;stroke-dasharray:none;stroke-opacity:1"
         id="path26" /><path
         d="m 97.094,1001.895 -3.5,10 -3.5,-10 z"
         style="fill:#c0c0c0;fill-opacity:1;fill-rule:nonzero;stroke:#c0c0c0;stroke-width:2;stroke-linecap:butt;stroke-linejoin:miter;stroke-miterlimit:10;stroke-dasharray:none;stroke-opacity:1"
         id="path28" /><path
         d="m 142.594,868 c 0,0 -98,0 -98,0 -6,0 -12,6 -12,12 0,0 0,12 0,12 0,6 6,12 12,12 0,0 98,0 98,0 6,0 12,-6 12,-12 0,0 0,-12 0,-12 0,-6 -6,-12 -12,-12"
         style="fill:none;stroke:#57c1d9;stroke-width:2;stroke-linecap:butt;stroke-linejoin:miter;stroke-miterlimit:10;stroke-dasharray:none;stroke-opacity:1"
         id="path30" /><text
         transform="translate(40.59375,888.5)"
         style="font-variant:normal;font-weight:normal;font-size:9.99976px;font-family:'DejaVu Sans';-inkscape-font-specification:DejaVuSans;writing-mode:lr-tb;fill:#000000;fill-opacity:1;fill-rule:nonzero;stroke:none"
         id="text34"><tspan
           x="0 5.239872 11.229726 20.969488 26.979342 29.969269 35.959122 41.958977 47.208847 53.198704 59.188557 65.178413 71.178261 74.928169 80.918022 84.667931 87.65786 93.647713 99.637566"
           y="0"
           sodipodi:role="line"
           id="tspan32">combine_annotations</tspan></text><path
         d="m 93.594,904.305 c 0,7.711 0,16.984 0,25.582"
         style="fill:none;stroke:#c0c0c0;stroke-width:2;stroke-linecap:butt;stroke-linejoin:miter;stroke-miterlimit:10;stroke-dasharray:none;stroke-opacity:1"
         id="path36" /><path
         d="m 97.094,929.895 -3.5,10 -3.5,-10 z"
         style="fill:#c0c0c0;fill-opacity:1;fill-rule:nonzero;stroke:#c0c0c0;stroke-width:2;stroke-linecap:butt;stroke-linejoin:miter;stroke-miterlimit:10;stroke-dasharray:none;stroke-opacity:1"
         id="path38" /><path
         d="m 136.594,508 c 0,0 -50,0 -50,0 -6,0 -12,6 -12,12 0,0 0,12 0,12 0,6 6,12 12,12 0,0 50,0 50,0 6,0 12,-6 12,-12 0,0 0,-12 0,-12 0,-6 -6,-12 -12,-12"
         style="fill:none;stroke:#bfd957;stroke-width:2;stroke-linecap:butt;stroke-linejoin:miter;stroke-miterlimit:10;stroke-dasharray:none;stroke-opacity:1"
         id="path40" /><text
         transform="translate(82.59375,528.5)"
         style="font-variant:normal;font-weight:normal;font-size:9.99976px;font-family:'DejaVu Sans';-inkscape-font-specification:DejaVuSans;writing-mode:lr-tb;fill:#000000;fill-opacity:1;fill-rule:nonzero;stroke:none"
         id="text44"><tspan
           x="0 5.9898539 11.979708 17.979561 23.229433 29.229286"
           y="0"
           sodipodi:role="line"
           id="tspan42">add_eb</tspan></text><text
         transform="translate(117.81289,528.5)"
         style="font-variant:normal;font-weight:normal;font-size:9.99976px;font-family:'DejaVu Sans';-inkscape-font-specification:DejaVuSans;writing-mode:lr-tb;fill:#000000;fill-opacity:1;fill-rule:nonzero;stroke:none"
         id="text48"><tspan
           x="0"
           y="0"
           id="tspan46">ﬁ</tspan></text><text
         transform="translate(123.80274,528.5)"
         style="font-variant:normal;font-weight:normal;font-size:9.99976px;font-family:'DejaVu Sans';-inkscape-font-specification:DejaVuSans;writing-mode:lr-tb;fill:#000000;fill-opacity:1;fill-rule:nonzero;stroke:none"
         id="text52"><tspan
           x="0 2.9899271 6.7398357 12.739689"
           y="0"
           sodipodi:role="line"
           id="tspan50">lter</tspan></text><path
         d="M 95.535,544.305 C 73.77,569.641 37.594,619.238 37.594,669 c 0,0 0,0 0,74 0,40.445 2.879,51.902 19,89 4.179,9.625 10.246,19.289 16.258,27.684"
         style="fill:none;stroke:#c0c0c0;stroke-width:2;stroke-linecap:butt;stroke-linejoin:miter;stroke-miterlimit:10;stroke-dasharray:none;stroke-opacity:1"
         id="path54" /><path
         d="m 75.82,857.809 3.2,10.101 -8.801,-5.902 z"
         style="fill:#c0c0c0;fill-opacity:1;fill-rule:nonzero;stroke:#c0c0c0;stroke-width:2;stroke-linecap:butt;stroke-linejoin:miter;stroke-miterlimit:10;stroke-dasharray:none;stroke-opacity:1"
         id="path56" /><path
         d="m 109.094,796 c 0,0 -31,0 -31,0 -6,0 -12,6 -12,12 0,0 0,12 0,12 0,6 6,12 12,12 0,0 31,0 31,0 6,0 12,-6 12,-12 0,0 0,-12 0,-12 0,-6 -6,-12 -12,-12"
         style="fill:none;stroke:#d6d957;stroke-width:2;stroke-linecap:butt;stroke-linejoin:miter;stroke-miterlimit:10;stroke-dasharray:none;stroke-opacity:1"
         id="path58" /><text
         transform="translate(74.09375,816.5)"
         style="font-variant:normal;font-weight:normal;font-size:9.99976px;font-family:'DejaVu Sans';-inkscape-font-specification:DejaVuSans;writing-mode:lr-tb;fill:#000000;fill-opacity:1;fill-rule:nonzero;stroke:none"
         id="text62"><tspan
           x="0 5.9898539 9.7397623 12.72969 22.469452 28.479305 32.229214"
           y="0"
           sodipodi:role="line"
           id="tspan60">primer3</tspan></text><path
         d="M 105.48,544.426 C 102.191,554.648 98.441,567.898 96.594,580 85.312,653.73 88.727,742.117 91.516,785.805"
         style="fill:none;stroke:#c0c0c0;stroke-width:2;stroke-linecap:butt;stroke-linejoin:miter;stroke-miterlimit:10;stroke-dasharray:none;stroke-opacity:1"
         id="path64" /><path
         d="m 95.016,785.695 -2.813,10.215 -4.168,-9.738 z"
         style="fill:#c0c0c0;fill-opacity:1;fill-rule:nonzero;stroke:#c0c0c0;stroke-width:2;stroke-linecap:butt;stroke-linejoin:miter;stroke-miterlimit:10;stroke-dasharray:none;stroke-opacity:1"
         id="path66" /><path
         d="m 213.594,796 c 0,0 -50,0 -50,0 -6,0 -12,6 -12,12 0,0 0,12 0,12 0,6 6,12 12,12 0,0 50,0 50,0 6,0 12,-6 12,-12 0,0 0,-12 0,-12 0,-6 -6,-12 -12,-12"
         style="fill:none;stroke:#57d9c1;stroke-width:2;stroke-linecap:butt;stroke-linejoin:miter;stroke-miterlimit:10;stroke-dasharray:none;stroke-opacity:1"
         id="path68" /><text
         transform="translate(159.59375,816.5)"
         style="font-variant:normal;font-weight:normal;font-size:9.99976px;font-family:'DejaVu Sans';-inkscape-font-specification:DejaVuSans;writing-mode:lr-tb;fill:#000000;fill-opacity:1;fill-rule:nonzero;stroke:none"
         id="text72"><tspan
           x="0 5.9898539 11.989707 15.739616 21.73947 26.979342 30.72925 35.979122 43.488937 50.968758"
           y="0"
           sodipodi:role="line"
           id="tspan70">detect_HDR</tspan></text><path
         d="m 148.633,537.371 c 49.383,15.91 135.492,51.352 177.961,114.629 26.863,40.027 37.75,68.586 10,108 -22.571,32.055 -66.406,44.824 -100.539,49.859"
         style="fill:none;stroke:#c0c0c0;stroke-width:2;stroke-linecap:butt;stroke-linejoin:miter;stroke-miterlimit:10;stroke-dasharray:none;stroke-opacity:1"
         id="path74" /><path
         d="m 236.172,813.371 -10.367,-2.187 9.468,-4.754 z"
         style="fill:#c0c0c0;fill-opacity:1;fill-rule:nonzero;stroke:#c0c0c0;stroke-width:2;stroke-linecap:butt;stroke-linejoin:miter;stroke-miterlimit:10;stroke-dasharray:none;stroke-opacity:1"
         id="path76" /><path
         d="m 177.594,580 c 0,0 -60,0 -60,0 -6,0 -12,6 -12,12 0,0 0,12 0,12 0,6 6,12 12,12 0,0 60,0 60,0 6,0 12,-6 12,-12 0,0 0,-12 0,-12 0,-6 -6,-12 -12,-12"
         style="fill:none;stroke:#59d957;stroke-width:2;stroke-linecap:butt;stroke-linejoin:miter;stroke-miterlimit:10;stroke-dasharray:none;stroke-opacity:1"
         id="path78" /><text
         transform="translate(113.59375,600.5)"
         style="font-variant:normal;font-weight:normal;font-size:9.99976px;font-family:'DejaVu Sans';-inkscape-font-specification:DejaVuSans;writing-mode:lr-tb;fill:#000000;fill-opacity:1;fill-rule:nonzero;stroke:none"
         id="text82"><tspan
           x="0 9.7397623 15.739616 19.489525 25.479378 29.229286 32.219215 38.219067 44.20892 49.458794 55.448647 61.448502"
           y="0"
           sodipodi:role="line"
           id="tspan80">mutation_bed</tspan></text><path
         d="m 120.492,544.305 c 4.098,7.968 9.047,17.597 13.594,26.429"
         style="fill:none;stroke:#c0c0c0;stroke-width:2;stroke-linecap:butt;stroke-linejoin:miter;stroke-miterlimit:10;stroke-dasharray:none;stroke-opacity:1"
         id="path84" /><path
         d="m 137.336,569.402 1.461,10.493 -7.688,-7.293 z"
         style="fill:#c0c0c0;fill-opacity:1;fill-rule:nonzero;stroke:#c0c0c0;stroke-width:2;stroke-linecap:butt;stroke-linejoin:miter;stroke-miterlimit:10;stroke-dasharray:none;stroke-opacity:1"
         id="path86" /><path
         d="m 99.594,436 c 0,0 -32,0 -32,0 -6,0 -12,6 -12,12 0,0 0,12 0,12 0,6 6,12 12,12 0,0 32,0 32,0 6,0 12,-6 12,-12 0,0 0,-12 0,-12 0,-6 -6,-12 -12,-12"
         style="fill:none;stroke:#d98d57;stroke-width:2;stroke-linecap:butt;stroke-linejoin:miter;stroke-miterlimit:10;stroke-dasharray:none;stroke-opacity:1"
         id="path88" /><text
         transform="translate(63.59375,456.5)"
         style="font-variant:normal;font-weight:normal;font-size:9.99976px;font-family:'DejaVu Sans';-inkscape-font-specification:DejaVuSans;writing-mode:lr-tb;fill:#000000;fill-opacity:1;fill-rule:nonzero;stroke:none"
         id="text92"><tspan
           x="0 5.9898539 11.979708 17.979561 23.969416 29.959269 35.949123"
           y="0"
           sodipodi:role="line"
           id="tspan90">annovar</tspan></text><path
         d="m 90.512,472.305 c 3.156,7.883 6.957,17.39 10.461,26.148"
         style="fill:none;stroke:#c0c0c0;stroke-width:2;stroke-linecap:butt;stroke-linejoin:miter;stroke-miterlimit:10;stroke-dasharray:none;stroke-opacity:1"
         id="path94" /><path
         d="m 104.285,497.312 0.465,10.583 -6.965,-7.985 z"
         style="fill:#c0c0c0;fill-opacity:1;fill-rule:nonzero;stroke:#c0c0c0;stroke-width:2;stroke-linecap:butt;stroke-linejoin:miter;stroke-miterlimit:10;stroke-dasharray:none;stroke-opacity:1"
         id="path96" /><path
         d="m 105.594,364 c 0,0 -62,0 -62,0 -6,0 -12,6 -12,12 0,0 0,12 0,12 0,6 6,12 12,12 0,0 62,0 62,0 6,0 12,-6 12,-12 0,0 0,-12 0,-12 0,-6 -6,-12 -12,-12"
         style="fill:none;stroke:#d9a557;stroke-width:2;stroke-linecap:butt;stroke-linejoin:miter;stroke-miterlimit:10;stroke-dasharray:none;stroke-opacity:1"
         id="path98" /><text
         transform="translate(39.59375,384.5)"
         style="font-variant:normal;font-weight:normal;font-size:9.99976px;font-family:'DejaVu Sans';-inkscape-font-specification:DejaVuSans;writing-mode:lr-tb;fill:#000000;fill-opacity:1;fill-rule:nonzero;stroke:none"
         id="text102"><tspan
           x="0 3.7499084 9.7397623 15.729616 18.729544 24.719397 29.969269 33.719177 39.70903 44.958904 50.958755 56.948612 62.938465"
           y="0"
           sodipodi:role="line"
           id="tspan100">table_to_anno</tspan></text><path
         d="m 76.816,400.305 c 0.993,7.711 2.184,16.984 3.289,25.582"
         style="fill:none;stroke:#c0c0c0;stroke-width:2;stroke-linecap:butt;stroke-linejoin:miter;stroke-miterlimit:10;stroke-dasharray:none;stroke-opacity:1"
         id="path104" /><path
         d="m 83.59,425.531 -2.195,10.364 -4.75,-9.473 z"
         style="fill:#c0c0c0;fill-opacity:1;fill-rule:nonzero;stroke:#c0c0c0;stroke-width:2;stroke-linecap:butt;stroke-linejoin:miter;stroke-miterlimit:10;stroke-dasharray:none;stroke-opacity:1"
         id="path106" /><path
         d="m 92.094,292 c 0,0 -53,0 -53,0 -6,0 -12,6 -12,12 0,0 0,12 0,12 0,6 6,12 12,12 0,0 53,0 53,0 6,0 12,-6 12,-12 0,0 0,-12 0,-12 0,-6 -6,-12 -12,-12"
         style="fill:none;stroke:#71d957;stroke-width:2;stroke-linecap:butt;stroke-linejoin:miter;stroke-miterlimit:10;stroke-dasharray:none;stroke-opacity:1"
         id="path108" /><text
         transform="translate(35.09375,312.5)"
         style="font-variant:normal;font-weight:normal;font-size:9.99976px;font-family:'DejaVu Sans';-inkscape-font-specification:DejaVuSans;writing-mode:lr-tb;fill:#000000;fill-opacity:1;fill-rule:nonzero;stroke:none"
         id="text112"><tspan
           x="0 5.9898539 11.229726 14.979634 20.229506 23.979414 29.979269 35.229141 38.969048 44.968903 50.958755 53.948685"
           y="0"
           sodipodi:role="line"
           id="tspan110">vcf_to_table</tspan></text><path
         d="m 67.816,328.305 c 0.993,7.711 2.184,16.984 3.289,25.582"
         style="fill:none;stroke:#c0c0c0;stroke-width:2;stroke-linecap:butt;stroke-linejoin:miter;stroke-miterlimit:10;stroke-dasharray:none;stroke-opacity:1"
         id="path114" /><path
         d="m 74.59,353.531 -2.195,10.364 -4.75,-9.473 z"
         style="fill:#c0c0c0;fill-opacity:1;fill-rule:nonzero;stroke:#c0c0c0;stroke-width:2;stroke-linecap:butt;stroke-linejoin:miter;stroke-miterlimit:10;stroke-dasharray:none;stroke-opacity:1"
         id="path116" /><path
         d="m 80.594,220 c 0,0 -38,0 -38,0 -6,0 -12,6 -12,12 0,0 0,12 0,12 0,6 6,12 12,12 0,0 38,0 38,0 6,0 12,-6 12,-12 0,0 0,-12 0,-12 0,-6 -6,-12 -12,-12"
         style="fill:none;stroke:#57d9d9;stroke-width:2;stroke-linecap:butt;stroke-linejoin:miter;stroke-miterlimit:10;stroke-dasharray:none;stroke-opacity:1"
         id="path118" /><text
         transform="translate(38.59375,240.5)"
         style="font-variant:normal;font-weight:normal;font-size:9.99976px;font-family:'DejaVu Sans';-inkscape-font-specification:DejaVuSans;writing-mode:lr-tb;fill:#000000;fill-opacity:1;fill-rule:nonzero;stroke:none"
         id="text122"><tspan
           x="0 5.9898539 11.979708 15.649618 25.479378 30.72925 36.719105 41.968975"
           y="0"
           sodipodi:role="line"
           id="tspan120">norm_vcf</tspan></text><path
         d="m 62.582,256.305 c 0.441,7.711 0.969,16.984 1.461,25.582"
         style="fill:none;stroke:#c0c0c0;stroke-width:2;stroke-linecap:butt;stroke-linejoin:miter;stroke-miterlimit:10;stroke-dasharray:none;stroke-opacity:1"
         id="path124" /><path
         d="m 67.539,281.711 -2.926,10.184 -4.062,-9.782 z"
         style="fill:#c0c0c0;fill-opacity:1;fill-rule:nonzero;stroke:#c0c0c0;stroke-width:2;stroke-linecap:butt;stroke-linejoin:miter;stroke-miterlimit:10;stroke-dasharray:none;stroke-opacity:1"
         id="path126" /><path
         d="m 83.094,76 c 0,0 -43,0 -43,0 -6,0 -12,6 -12,12 0,0 0,12 0,12 0,6 6,12 12,12 0,0 43,0 43,0 6,0 12,-6 12,-12 0,0 0,-12 0,-12 0,-6 -6,-12 -12,-12"
         style="fill:none;stroke:#578bd9;stroke-width:2;stroke-linecap:butt;stroke-linejoin:miter;stroke-miterlimit:10;stroke-dasharray:none;stroke-opacity:1"
         id="path128" /><text
         transform="translate(36.09375,96.5)"
         style="font-variant:normal;font-weight:normal;font-size:9.99976px;font-family:'DejaVu Sans';-inkscape-font-specification:DejaVuSans;writing-mode:lr-tb;fill:#000000;fill-opacity:1;fill-rule:nonzero;stroke:none"
         id="text132"><tspan
           x="0 5.9898539 11.229726 14.979634 20.229506 23.979414 29.979269 35.229141 41.218994 46.458866"
           y="0"
           sodipodi:role="line"
           id="tspan130">bcf_to_vcf</tspan></text><path
         d="M 37.117,112.23 C 26.188,121.445 14.469,133.812 8.594,148 c -6.125,14.781 -6.125,21.219 0,36 4.543,10.973 12.582,20.855 21.051,29.035"
         style="fill:none;stroke:#c0c0c0;stroke-width:2;stroke-linecap:butt;stroke-linejoin:miter;stroke-miterlimit:10;stroke-dasharray:none;stroke-opacity:1"
         id="path134" /><path
         d="m 32.027,210.473 5.09,9.297 -9.773,-4.094 z"
         style="fill:#c0c0c0;fill-opacity:1;fill-rule:nonzero;stroke:#c0c0c0;stroke-width:2;stroke-linecap:butt;stroke-linejoin:miter;stroke-miterlimit:10;stroke-dasharray:none;stroke-opacity:1"
         id="path136" /><path
         d="m 93.594,148 c 0,0 -64,0 -64,0 -6,0 -12,6 -12,12 0,0 0,12 0,12 0,6 6,12 12,12 0,0 64,0 64,0 6,0 12,-6 12,-12 0,0 0,-12 0,-12 0,-6 -6,-12 -12,-12"
         style="fill:none;stroke:#57d973;stroke-width:2;stroke-linecap:butt;stroke-linejoin:miter;stroke-miterlimit:10;stroke-dasharray:none;stroke-opacity:1"
         id="path138" /><text
         transform="translate(25.59375,168.5)"
         style="font-variant:normal;font-weight:normal;font-size:9.99976px;font-family:'DejaVu Sans';-inkscape-font-specification:DejaVuSans;writing-mode:lr-tb;fill:#000000;fill-opacity:1;fill-rule:nonzero;stroke:none"
         id="text142"><tspan
           x="0 5.9898539 11.229726 14.899636 18.729544 24.729397 30.71925 33.709179 38.949051 44.198921 47.18885 53.178703 59.178555 65.088409"
           y="0"
           sodipodi:role="line"
           id="tspan140">bcftools_index</tspan></text><path
         d="m 61.594,112.305 c 0,7.711 0,16.984 0,25.582"
         style="fill:none;stroke:#c0c0c0;stroke-width:2;stroke-linecap:butt;stroke-linejoin:miter;stroke-miterlimit:10;stroke-dasharray:none;stroke-opacity:1"
         id="path144" /><path
         d="m 65.094,137.895 -3.5,10 -3.5,-10 z"
         style="fill:#c0c0c0;fill-opacity:1;fill-rule:nonzero;stroke:#c0c0c0;stroke-width:2;stroke-linecap:butt;stroke-linejoin:miter;stroke-miterlimit:10;stroke-dasharray:none;stroke-opacity:1"
         id="path146" /><path
         d="m 107.594,4 c 0,0 -30,0 -30,0 -6,0 -12,6 -12,12 0,0 0,12 0,12 0,6 6,12 12,12 0,0 30,0 30,0 6,0 12,-6 12,-12 0,0 0,-12 0,-12 0,-6 -6,-12 -12,-12"
         style="fill:none;stroke:#57d9a2;stroke-width:2;stroke-linecap:butt;stroke-linejoin:miter;stroke-miterlimit:10;stroke-dasharray:none;stroke-opacity:1"
         id="path148" /><text
         transform="translate(75.59375,24.5)"
         style="font-variant:normal;font-weight:normal;font-size:9.99976px;font-family:'DejaVu Sans';-inkscape-font-specification:DejaVuSans;writing-mode:lr-tb;fill:#000000;fill-opacity:1;fill-rule:nonzero;stroke:none"
         id="text152"><tspan
           x="0 5.9898539 11.979708 15.649618 21.729469 24.719397 29.959269"
           y="0"
           sodipodi:role="line"
           id="tspan150">vardict</tspan></text><path
         d="M 84.93,40.305 C 81.402,48.273 77.137,57.902 73.223,66.734"
         style="fill:none;stroke:#c0c0c0;stroke-width:2;stroke-linecap:butt;stroke-linejoin:miter;stroke-miterlimit:10;stroke-dasharray:none;stroke-opacity:1"
         id="path154" /><path
         d="m 76.418,68.168 -7.25,7.727 0.848,-10.559 z"
         style="fill:#c0c0c0;fill-opacity:1;fill-rule:nonzero;stroke:#c0c0c0;stroke-width:2;stroke-linecap:butt;stroke-linejoin:miter;stroke-miterlimit:10;stroke-dasharray:none;stroke-opacity:1"
         id="path156" /><path
         d="m 165.594,148 c 0,0 -30,0 -30,0 -6,0 -12,6 -12,12 0,0 0,12 0,12 0,6 6,12 12,12 0,0 30,0 30,0 6,0 12,-6 12,-12 0,0 0,-12 0,-12 0,-6 -6,-12 -12,-12"
         style="fill:none;stroke:#d96e57;stroke-width:2;stroke-linecap:butt;stroke-linejoin:miter;stroke-miterlimit:10;stroke-dasharray:none;stroke-opacity:1"
         id="path158" /><text
         transform="translate(133.09375,168.5)"
         style="font-variant:normal;font-weight:normal;font-size:9.99976px;font-family:'DejaVu Sans';-inkscape-font-specification:DejaVuSans;writing-mode:lr-tb;fill:#000000;fill-opacity:1;fill-rule:nonzero;stroke:none"
         id="text162"><tspan
           x="0 5.9998536"
           y="0"
           sodipodi:role="line"
           id="tspan160">eb</tspan></text><text
         transform="translate(145.08346,168.5)"
         style="font-variant:normal;font-weight:normal;font-size:9.99976px;font-family:'DejaVu Sans';-inkscape-font-specification:DejaVuSans;writing-mode:lr-tb;fill:#000000;fill-opacity:1;fill-rule:nonzero;stroke:none"
         id="text166"><tspan
           x="0"
           y="0"
           id="tspan164">ﬁ</tspan></text><text
         transform="translate(151.07331,168.5)"
         style="font-variant:normal;font-weight:normal;font-size:9.99976px;font-family:'DejaVu Sans';-inkscape-font-specification:DejaVuSans;writing-mode:lr-tb;fill:#000000;fill-opacity:1;fill-rule:nonzero;stroke:none"
         id="text170"><tspan
           x="0 2.9899271 6.7398357 12.739689"
           y="0"
           sodipodi:role="line"
           id="tspan168">lter</tspan></text><path
         d="m 99.59,40.129 c 9.969,24.414 28.363,69.445 40.125,98.234"
         style="fill:none;stroke:#c0c0c0;stroke-width:2;stroke-linecap:butt;stroke-linejoin:miter;stroke-miterlimit:10;stroke-dasharray:none;stroke-opacity:1"
         id="path172" /><path
         d="m 143.031,137.23 0.539,10.582 -7.019,-7.937 z"
         style="fill:#c0c0c0;fill-opacity:1;fill-rule:nonzero;stroke:#c0c0c0;stroke-width:2;stroke-linecap:butt;stroke-linejoin:miter;stroke-miterlimit:10;stroke-dasharray:none;stroke-opacity:1"
         id="path174" /><path
         d="m 61.594,184.305 c 0,7.711 0,16.984 0,25.582"
         style="fill:none;stroke:#c0c0c0;stroke-width:2;stroke-linecap:butt;stroke-linejoin:miter;stroke-miterlimit:10;stroke-dasharray:none;stroke-opacity:1"
         id="path176" /><path
         d="m 65.094,209.895 -3.5,10 -3.5,-10 z"
         style="fill:#c0c0c0;fill-opacity:1;fill-rule:nonzero;stroke:#c0c0c0;stroke-width:2;stroke-linecap:butt;stroke-linejoin:miter;stroke-miterlimit:10;stroke-dasharray:none;stroke-opacity:1"
         id="path178" /><path
         d="m 150,184.047 c -0.875,26.656 -2.406,79.828 -2.406,124.953 0,0 0,0 0,74 0,41.227 -14.434,87.176 -25.024,115.336"
         style="fill:none;stroke:#c0c0c0;stroke-width:2;stroke-linecap:butt;stroke-linejoin:miter;stroke-miterlimit:10;stroke-dasharray:none;stroke-opacity:1"
         id="path180" /><path
         d="m 125.754,499.809 -6.875,8.058 0.348,-10.59 z"
         style="fill:#c0c0c0;fill-opacity:1;fill-rule:nonzero;stroke:#c0c0c0;stroke-width:2;stroke-linecap:butt;stroke-linejoin:miter;stroke-miterlimit:10;stroke-dasharray:none;stroke-opacity:1"
         id="path182" /><path
         d="m 93.594,832.305 c 0,7.711 0,16.984 0,25.582"
         style="fill:none;stroke:#c0c0c0;stroke-width:2;stroke-linecap:butt;stroke-linejoin:miter;stroke-miterlimit:10;stroke-dasharray:none;stroke-opacity:1"
         id="path184" /><path
         d="m 97.094,857.895 -3.5,10 -3.5,-10 z"
         style="fill:#c0c0c0;fill-opacity:1;fill-rule:nonzero;stroke:#c0c0c0;stroke-width:2;stroke-linecap:butt;stroke-linejoin:miter;stroke-miterlimit:10;stroke-dasharray:none;stroke-opacity:1"
         id="path186" /><path
         d="m 165.109,832.305 c -12.078,8.898 -26.972,19.871 -40.031,29.496"
         style="fill:none;stroke:#c0c0c0;stroke-width:2;stroke-linecap:butt;stroke-linejoin:miter;stroke-miterlimit:10;stroke-dasharray:none;stroke-opacity:1"
         id="path188" /><path
         d="m 126.934,864.781 -10.129,3.114 5.976,-8.75 z"
         style="fill:#c0c0c0;fill-opacity:1;fill-rule:nonzero;stroke:#c0c0c0;stroke-width:2;stroke-linecap:butt;stroke-linejoin:miter;stroke-miterlimit:10;stroke-dasharray:none;stroke-opacity:1"
         id="path190" /><path
         d="m 181.594,652 c 0,0 -66,0 -66,0 -6,0 -12,6 -12,12 0,0 0,12 0,12 0,6 6,12 12,12 0,0 66,0 66,0 6,0 12,-6 12,-12 0,0 0,-12 0,-12 0,-6 -6,-12 -12,-12"
         style="fill:none;stroke:#57a2d9;stroke-width:2;stroke-linecap:butt;stroke-linejoin:miter;stroke-miterlimit:10;stroke-dasharray:none;stroke-opacity:1"
         id="path192" /><text
         transform="translate(111.59375,672.5)"
         style="font-variant:normal;font-weight:normal;font-size:9.99976px;font-family:'DejaVu Sans';-inkscape-font-specification:DejaVuSans;writing-mode:lr-tb;fill:#000000;fill-opacity:1;fill-rule:nonzero;stroke:none"
         id="text196"><tspan
           x="0 5.239872 11.229726 20.969488 24.729397 30.71925 36.709103 39.70903 44.948902 50.198776 56.188629 59.178555 65.178413"
           y="0"
           sodipodi:role="line"
           id="tspan194">samtools_view</tspan></text><path
         d="m 139.934,688.059 c -8.09,18.418 -17.52,48.293 -7.34,71.941 4.789,11.125 13.187,21.008 22.047,29.137"
         style="fill:none;stroke:#c0c0c0;stroke-width:2;stroke-linecap:butt;stroke-linejoin:miter;stroke-miterlimit:10;stroke-dasharray:none;stroke-opacity:1"
         id="path198" /><path
         d="m 157.133,786.66 5.336,9.156 -9.879,-3.828 z"
         style="fill:#c0c0c0;fill-opacity:1;fill-rule:nonzero;stroke:#c0c0c0;stroke-width:2;stroke-linecap:butt;stroke-linejoin:miter;stroke-miterlimit:10;stroke-dasharray:none;stroke-opacity:1"
         id="path200" /><path
         d="m 223.594,724 c 0,0 -70,0 -70,0 -6,0 -12,6 -12,12 0,0 0,12 0,12 0,6 6,12 12,12 0,0 70,0 70,0 6,0 12,-6 12,-12 0,0 0,-12 0,-12 0,-6 -6,-12 -12,-12"
         style="fill:none;stroke:#d9bc57;stroke-width:2;stroke-linecap:butt;stroke-linejoin:miter;stroke-miterlimit:10;stroke-dasharray:none;stroke-opacity:1"
         id="path202" /><text
         transform="translate(149.59375,744.5)"
         style="font-variant:normal;font-weight:normal;font-size:9.99976px;font-family:'DejaVu Sans';-inkscape-font-specification:DejaVuSans;writing-mode:lr-tb;fill:#000000;fill-opacity:1;fill-rule:nonzero;stroke:none"
         id="text206"><tspan
           x="0 5.239872 11.229726 20.969488 24.729397 30.71925 36.709103 39.70903 44.948902 50.198776 53.188702 59.178555 65.168411 71.078262"
           y="0"
           sodipodi:role="line"
           id="tspan204">samtools_index</tspan></text><path
         d="m 158.48,688.305 c 4.602,8.05 10.172,17.8 15.266,26.711"
         style="fill:none;stroke:#c0c0c0;stroke-width:2;stroke-linecap:butt;stroke-linejoin:miter;stroke-miterlimit:10;stroke-dasharray:none;stroke-opacity:1"
         id="path208" /><path
         d="m 176.895,713.477 1.921,10.418 -8,-6.946 z"
         style="fill:#c0c0c0;fill-opacity:1;fill-rule:nonzero;stroke:#c0c0c0;stroke-width:2;stroke-linecap:butt;stroke-linejoin:miter;stroke-miterlimit:10;stroke-dasharray:none;stroke-opacity:1"
         id="path210" /><path
         d="m 147.84,616.305 c 0.109,7.711 0.242,16.984 0.363,25.582"
         style="fill:none;stroke:#c0c0c0;stroke-width:2;stroke-linecap:butt;stroke-linejoin:miter;stroke-miterlimit:10;stroke-dasharray:none;stroke-opacity:1"
         id="path212" /><path
         d="m 151.703,641.848 -3.355,10.047 -3.641,-9.95 z"
         style="fill:#c0c0c0;fill-opacity:1;fill-rule:nonzero;stroke:#c0c0c0;stroke-width:2;stroke-linecap:butt;stroke-linejoin:miter;stroke-miterlimit:10;stroke-dasharray:none;stroke-opacity:1"
         id="path214" /><path
         d="m 188.594,760.305 c 0,7.711 0,16.984 0,25.582"
         style="fill:none;stroke:#c0c0c0;stroke-width:2;stroke-linecap:butt;stroke-linejoin:miter;stroke-miterlimit:10;stroke-dasharray:none;stroke-opacity:1"
         id="path216" /><path
         d="m 192.094,785.895 -3.5,10 -3.5,-10 z"
         style="fill:#c0c0c0;fill-opacity:1;fill-rule:nonzero;stroke:#c0c0c0;stroke-width:2;stroke-linecap:butt;stroke-linejoin:miter;stroke-miterlimit:10;stroke-dasharray:none;stroke-opacity:1"
         id="path218" /><path
         d="m 315.594,724 c 0,0 -50,0 -50,0 -6,0 -12,6 -12,12 0,0 0,12 0,12 0,6 6,12 12,12 0,0 50,0 50,0 6,0 12,-6 12,-12 0,0 0,-12 0,-12 0,-6 -6,-12 -12,-12"
         style="fill:none;stroke:#d95757;stroke-width:2;stroke-linecap:butt;stroke-linejoin:miter;stroke-miterlimit:10;stroke-dasharray:none;stroke-opacity:1"
         id="path220" /><text
         transform="translate(261.59375,744.5)"
         style="font-variant:normal;font-weight:normal;font-size:9.99976px;font-family:'DejaVu Sans';-inkscape-font-specification:DejaVuSans;writing-mode:lr-tb;fill:#000000;fill-opacity:1;fill-rule:nonzero;stroke:none"
         id="text224"><tspan
           x="0"
           y="0"
           id="tspan222">ﬁ</tspan></text><text
         transform="translate(267.5836,744.5)"
         style="font-variant:normal;font-weight:normal;font-size:9.99976px;font-family:'DejaVu Sans';-inkscape-font-specification:DejaVuSans;writing-mode:lr-tb;fill:#000000;fill-opacity:1;fill-rule:nonzero;stroke:none"
         id="text228"><tspan
           x="0 2.9899271 6.7398357 12.739689 16.489597 21.73947 27.729324 30.71925 33.709179 39.70903 45.708885"
           y="0"
           sodipodi:role="line"
           id="tspan226">lter_pileup</tspan></text><path
         d="m 265.641,760.125 c -13.09,8.98 -29.309,20.113 -43.485,29.84"
         style="fill:none;stroke:#c0c0c0;stroke-width:2;stroke-linecap:butt;stroke-linejoin:miter;stroke-miterlimit:10;stroke-dasharray:none;stroke-opacity:1"
         id="path230" /><path
         d="m 223.867,793.039 -10.226,2.77 6.265,-8.543 z"
         style="fill:#c0c0c0;fill-opacity:1;fill-rule:nonzero;stroke:#c0c0c0;stroke-width:2;stroke-linecap:butt;stroke-linejoin:miter;stroke-miterlimit:10;stroke-dasharray:none;stroke-opacity:1"
         id="path232" /><path
         d="m 305.594,652 c 0,0 -30,0 -30,0 -6,0 -12,6 -12,12 0,0 0,12 0,12 0,6 6,12 12,12 0,0 30,0 30,0 6,0 12,-6 12,-12 0,0 0,-12 0,-12 0,-6 -6,-12 -12,-12"
         style="fill:none;stroke:#5773d9;stroke-width:2;stroke-linecap:butt;stroke-linejoin:miter;stroke-miterlimit:10;stroke-dasharray:none;stroke-opacity:1"
         id="path234" /><text
         transform="translate(273.59375,672.5)"
         style="font-variant:normal;font-weight:normal;font-size:9.99976px;font-family:'DejaVu Sans';-inkscape-font-specification:DejaVuSans;writing-mode:lr-tb;fill:#000000;fill-opacity:1;fill-rule:nonzero;stroke:none"
         id="text238"><tspan
           x="0 9.7397623 15.739616 18.729544 21.729469 27.719324"
           y="0"
           sodipodi:role="line"
           id="tspan236">mpilup</tspan></text><path
         d="m 290.594,688.305 c 0,7.711 0,16.984 0,25.582"
         style="fill:none;stroke:#c0c0c0;stroke-width:2;stroke-linecap:butt;stroke-linejoin:miter;stroke-miterlimit:10;stroke-dasharray:none;stroke-opacity:1"
         id="path240" /><path
         d="m 294.094,713.895 -3.5,10 -3.5,-10 z"
         style="fill:#c0c0c0;fill-opacity:1;fill-rule:nonzero;stroke:#c0c0c0;stroke-width:2;stroke-linecap:butt;stroke-linejoin:miter;stroke-miterlimit:10;stroke-dasharray:none;stroke-opacity:1"
         id="path242" /></g></g></svg>
