<?xml version="1.0" encoding="UTF-8" standalone="no"?>
<svg
   xmlns:dc="http://purl.org/dc/elements/1.1/"
   xmlns:cc="http://creativecommons.org/ns#"
   xmlns:rdf="http://www.w3.org/1999/02/22-rdf-syntax-ns#"
   xmlns:svg="http://www.w3.org/2000/svg"
   xmlns="http://www.w3.org/2000/svg"
   viewBox="0 0 501.07343 138.76126"
   height="138.76126"
   width="501.07346"
   xml:space="preserve"
   id="svg2"
   version="1.1"><metadata
     id="metadata8"><rdf:RDF><cc:Work
         rdf:about=""><dc:format>image/svg+xml</dc:format><dc:type
           rdf:resource="http://purl.org/dc/dcmitype/StillImage" /><dc:title></dc:title></cc:Work></rdf:RDF></metadata><defs
     id="defs6"><marker
       orient="auto"
       refY="0"
       refX="0"
       id="marker7004"
       style="overflow:visible"><path
         id="path7002"
         d="M 0,0 5,-5 -12.5,0 5,5 Z"
         style="fill:#0000f1;fill-opacity:1;fill-rule:evenodd;stroke:#0000f1;stroke-width:1.00000003pt;stroke-opacity:1"
         transform="matrix(-0.8,0,0,-0.8,-10,0)" /></marker><marker
       orient="auto"
       refY="0"
       refX="0"
       id="marker6862"
       style="overflow:visible"><path
         id="path6860"
         d="M 0,0 5,-5 -12.5,0 5,5 Z"
         style="fill:#0000f1;fill-opacity:1;fill-rule:evenodd;stroke:#0000f1;stroke-width:1.00000003pt;stroke-opacity:1"
         transform="matrix(-0.8,0,0,-0.8,-10,0)" /></marker><marker
       orient="auto"
       refY="0"
       refX="0"
       id="marker6732"
       style="overflow:visible"><path
         id="path6730"
         d="M 0,0 5,-5 -12.5,0 5,5 Z"
         style="fill:#0000f1;fill-opacity:1;fill-rule:evenodd;stroke:#0000f1;stroke-width:1.00000003pt;stroke-opacity:1"
         transform="matrix(-0.8,0,0,-0.8,-10,0)" /></marker><marker
       orient="auto"
       refY="0"
       refX="0"
       id="marker6608"
       style="overflow:visible"><path
         id="path6606"
         d="M 0,0 5,-5 -12.5,0 5,5 Z"
         style="fill:#0000f1;fill-opacity:1;fill-rule:evenodd;stroke:#0000f1;stroke-width:1.00000003pt;stroke-opacity:1"
         transform="matrix(-0.8,0,0,-0.8,-10,0)" /></marker><marker
       orient="auto"
       refY="0"
       refX="0"
       id="marker6598"
       style="overflow:visible"><path
         id="path6596"
         d="M 0,0 5,-5 -12.5,0 5,5 Z"
         style="fill:#0000f1;fill-opacity:1;fill-rule:evenodd;stroke:#0000f1;stroke-width:1.00000003pt;stroke-opacity:1"
         transform="matrix(-0.8,0,0,-0.8,-10,0)" /></marker><marker
       style="overflow:visible"
       id="Arrow1Lend"
       refX="0"
       refY="0"
       orient="auto"><path
         transform="matrix(-0.8,0,0,-0.8,-10,0)"
         style="fill:#0000f1;fill-opacity:1;fill-rule:evenodd;stroke:#0000f1;stroke-width:1.00000003pt;stroke-opacity:1"
         d="M 0,0 5,-5 -12.5,0 5,5 Z"
         id="path5007" /></marker><marker
       orient="auto"
       refY="0"
       refX="0"
       id="marker6352"
       style="overflow:visible"><path
         id="path6350"
         d="M 0,0 5,-5 -12.5,0 5,5 Z"
         style="fill:#0000f1;fill-opacity:1;fill-rule:evenodd;stroke:#0000f1;stroke-width:1.00000003pt;stroke-opacity:1"
         transform="matrix(0.8,0,0,0.8,10,0)" /></marker><marker
       orient="auto"
       refY="0"
       refX="0"
       id="marker6240"
       style="overflow:visible"><path
         id="path6238"
         d="M 0,0 5,-5 -12.5,0 5,5 Z"
         style="fill:#0000f1;fill-opacity:1;fill-rule:evenodd;stroke:#0000f1;stroke-width:1.00000003pt;stroke-opacity:1"
         transform="matrix(0.8,0,0,0.8,10,0)" /></marker><marker
       orient="auto"
       refY="0"
       refX="0"
       id="marker6140"
       style="overflow:visible"><path
         id="path6138"
         d="M 0,0 5,-5 -12.5,0 5,5 Z"
         style="fill:#0000f1;fill-opacity:1;fill-rule:evenodd;stroke:#0000f1;stroke-width:1.00000003pt;stroke-opacity:1"
         transform="matrix(0.8,0,0,0.8,10,0)" /></marker><marker
       orient="auto"
       refY="0"
       refX="0"
       id="marker6046"
       style="overflow:visible"><path
         id="path6044"
         d="M 0,0 5,-5 -12.5,0 5,5 Z"
         style="fill:#0000f1;fill-opacity:1;fill-rule:evenodd;stroke:#0000f1;stroke-width:1.00000003pt;stroke-opacity:1"
         transform="matrix(0.8,0,0,0.8,10,0)" /></marker><marker
       orient="auto"
       refY="0"
       refX="0"
       id="marker5958"
       style="overflow:visible"><path
         id="path5956"
         d="M 0,0 5,-5 -12.5,0 5,5 Z"
         style="fill:#0000f1;fill-opacity:1;fill-rule:evenodd;stroke:#0000f1;stroke-width:1.00000003pt;stroke-opacity:1"
         transform="matrix(0.8,0,0,0.8,10,0)" /></marker><marker
       orient="auto"
       refY="0"
       refX="0"
       id="marker5788"
       style="overflow:visible"><path
         id="path5786"
         d="M 0,0 5,-5 -12.5,0 5,5 Z"
         style="fill:#0000f1;fill-opacity:1;fill-rule:evenodd;stroke:#0000f1;stroke-width:1.00000003pt;stroke-opacity:1"
         transform="matrix(0.8,0,0,0.8,10,0)" /></marker><marker
       orient="auto"
       refY="0"
       refX="0"
       id="marker5718"
       style="overflow:visible"><path
         id="path5716"
         d="M 0,0 5,-5 -12.5,0 5,5 Z"
         style="fill:#0000f1;fill-opacity:1;fill-rule:evenodd;stroke:#0000f1;stroke-width:1.00000003pt;stroke-opacity:1"
         transform="matrix(0.8,0,0,0.8,10,0)" /></marker><marker
       orient="auto"
       refY="0"
       refX="0"
       id="marker5654"
       style="overflow:visible"><path
         id="path5652"
         d="M 0,0 5,-5 -12.5,0 5,5 Z"
         style="fill:#0000f1;fill-opacity:1;fill-rule:evenodd;stroke:#0000f1;stroke-width:1.00000003pt;stroke-opacity:1"
         transform="matrix(0.8,0,0,0.8,10,0)" /></marker><marker
       orient="auto"
       refY="0"
       refX="0"
       id="marker5596"
       style="overflow:visible"><path
         id="path5594"
         d="M 0,0 5,-5 -12.5,0 5,5 Z"
         style="fill:#0000f1;fill-opacity:1;fill-rule:evenodd;stroke:#0000f1;stroke-width:1.00000003pt;stroke-opacity:1"
         transform="matrix(0.8,0,0,0.8,10,0)" /></marker><marker
       orient="auto"
       refY="0"
       refX="0"
       id="marker5544"
       style="overflow:visible"><path
         id="path5542"
         d="M 0,0 5,-5 -12.5,0 5,5 Z"
         style="fill:#0000f1;fill-opacity:1;fill-rule:evenodd;stroke:#0000f1;stroke-width:1.00000003pt;stroke-opacity:1"
         transform="matrix(0.8,0,0,0.8,10,0)" /></marker><marker
       style="overflow:visible"
       id="Arrow1Lstart"
       refX="0"
       refY="0"
       orient="auto"><path
         transform="matrix(0.8,0,0,0.8,10,0)"
         style="fill:#0000f1;fill-opacity:1;fill-rule:evenodd;stroke:#0000f1;stroke-width:1.00000003pt;stroke-opacity:1"
         d="M 0,0 5,-5 -12.5,0 5,5 Z"
         id="path5004" /></marker><marker
       orient="auto"
       refY="0"
       refX="0"
       id="marker5412"
       style="overflow:visible"><path
         id="path5410"
         d="M 0,0 5,-5 -12.5,0 5,5 Z"
         style="fill:#0000f1;fill-opacity:1;fill-rule:evenodd;stroke:#0000f1;stroke-width:1.00000003pt;stroke-opacity:1"
         transform="matrix(0.8,0,0,0.8,10,0)" /></marker><marker
       orient="auto"
       refY="0"
       refX="0"
       id="marker5372"
       style="overflow:visible"><path
         id="path5370"
         d="M 0,0 5,-5 -12.5,0 5,5 Z"
         style="fill:#0000f1;fill-opacity:1;fill-rule:evenodd;stroke:#0000f1;stroke-width:1.00000003pt;stroke-opacity:1"
         transform="matrix(0.8,0,0,0.8,10,0)" /></marker><marker
       orient="auto"
       refY="0"
       refX="0"
       id="marker5338"
       style="overflow:visible"><path
         id="path5336"
         d="M 0,0 5,-5 -12.5,0 5,5 Z"
         style="fill:#0000f1;fill-opacity:1;fill-rule:evenodd;stroke:#0000f1;stroke-width:1.00000003pt;stroke-opacity:1"
         transform="matrix(0.8,0,0,0.8,10,0)" /></marker><marker
       orient="auto"
       refY="0"
       refX="0"
       id="marker5310"
       style="overflow:visible"><path
         id="path5308"
         d="M 0,0 5,-5 -12.5,0 5,5 Z"
         style="fill:#0000f1;fill-opacity:1;fill-rule:evenodd;stroke:#0000f1;stroke-width:1.00000003pt;stroke-opacity:1"
         transform="matrix(0.8,0,0,0.8,10,0)" /></marker><marker
       orient="auto"
       refY="0"
       refX="0"
       id="marker5288"
       style="overflow:visible"><path
         id="path5286"
         d="M 0,0 5,-5 -12.5,0 5,5 Z"
         style="fill:#0000f1;fill-opacity:1;fill-rule:evenodd;stroke:#0000f1;stroke-width:1.00000003pt;stroke-opacity:1"
         transform="matrix(0.8,0,0,0.8,10,0)" /></marker></defs><g
     transform="matrix(1.3333333,0,0,1.3333333,-319.33333,-198.7175)"
     id="g10"><g
       transform="translate(171.8051,-213.96187)"
       id="g467"><path
         id="path22"
         style="fill:none;stroke:#57d9a2;stroke-width:2;stroke-linecap:butt;stroke-linejoin:miter;stroke-miterlimit:10;stroke-dasharray:none;stroke-opacity:1"
         d="m 430.5,364 c 0,0 -53,0 -53,0 -6,0 -12,6 -12,12 0,0 0,12 0,12 0,6 6,12 12,12 0,0 53,0 53,0 6,0 12,-6 12,-12 0,0 0,-12 0,-12 0,-6 -6,-12 -12,-12" /><text
         id="text26"
         style="font-variant:normal;font-weight:normal;font-size:9.99975586px;font-family:'DejaVu Sans';-inkscape-font-specification:DejaVuSans;writing-mode:lr-tb;fill:#000000;fill-opacity:1;fill-rule:nonzero;stroke:none"
         x="373.5"
         y="384.5"><tspan
           id="tspan24"
           y="384.5"
           x="373.5 383.23978 389.23962 395.22946 400.47934 404.11926 410.2291 416.21896 422.21881 427.45868">map_reads2</tspan></text>
</g><g
       transform="translate(150.55086,-219.89092)"
       id="g472"><path
         id="path42"
         style="fill:none;stroke:#d98d57;stroke-width:2;stroke-linecap:butt;stroke-linejoin:miter;stroke-miterlimit:10;stroke-dasharray:none;stroke-opacity:1"
         d="m 451.5,436 c 0,0 -99,0 -99,0 -6,0 -12,6 -12,12 0,0 0,12 0,12 0,6 6,12 12,12 0,0 99,0 99,0 6,0 12,-6 12,-12 0,0 0,-12 0,-12 0,-6 -6,-12 -12,-12" /><text
         id="text46"
         style="font-variant:normal;font-weight:normal;font-size:9.99975586px;font-family:'DejaVu Sans';-inkscape-font-specification:DejaVuSans;writing-mode:lr-tb;fill:#000000;fill-opacity:1;fill-rule:nonzero;stroke:none"
         x="348.5"
         y="456.5"><tspan
           id="tspan44"
           y="456.5"
           x="348.5 353.37988 355.98981 358.97974 362.72964 368.72949 372.4794 379.22925 385.21912 391.20895 396.44882 402.44867 408.43854 413.67841 419.66827 424.90814 431.42798 437.64783 443.6377 449.63754">FilterConsensusReads</tspan></text>
</g><g
       transform="translate(148.77968,-141.96187)"
       id="g462"><path
         id="path72"
         style="fill:none;stroke:#57d98b;stroke-width:2;stroke-linecap:butt;stroke-linejoin:miter;stroke-miterlimit:10;stroke-dasharray:none;stroke-opacity:1"
         d="m 365.5,292 c 0,0 -75,0 -75,0 -6,0 -12,6 -12,12 0,0 0,12 0,12 0,6 6,12 12,12 0,0 75,0 75,0 6,0 12,-6 12,-12 0,0 0,-12 0,-12 0,-6 -6,-12 -12,-12" /><text
         id="text76"
         style="font-variant:normal;font-weight:normal;font-size:9.99975586px;font-family:'DejaVu Sans';-inkscape-font-specification:DejaVuSans;writing-mode:lr-tb;fill:#000000;fill-opacity:1;fill-rule:nonzero;stroke:none"
         x="286.5"
         y="312.5"><tspan
           id="tspan74"
           y="312.5"
           x="286.5 293.24985 299.23969 305.22955 310.46942 316.46927 322.45911 327.69901 333.68884 338.92871 345.44855 351.6684 357.66827 363.65811">ConsensusReads</tspan></text>
</g><g
       transform="translate(52.250005,-69.96187)"
       id="g457"><path
         id="path82"
         style="fill:none;stroke:#d95757;stroke-width:2;stroke-linecap:butt;stroke-linejoin:miter;stroke-miterlimit:10;stroke-dasharray:none;stroke-opacity:1"
         d="m 348,220 c 0,0 -52,0 -52,0 -6,0 -12,6 -12,12 0,0 0,12 0,12 0,6 6,12 12,12 0,0 52,0 52,0 6,0 12,-6 12,-12 0,0 0,-12 0,-12 0,-6 -6,-12 -12,-12" /><text
         id="text86"
         style="font-variant:normal;font-weight:normal;font-size:9.99975586px;font-family:'DejaVu Sans';-inkscape-font-specification:DejaVuSans;writing-mode:lr-tb;fill:#000000;fill-opacity:1;fill-rule:nonzero;stroke:none"
         x="292"
         y="240.5"><tspan
           id="tspan84"
           y="240.5"
           x="292 299.48981 303.12973 309.23959 315.21942 321.2193 327.72913 333.95898 339.94882 345.93869">GroupReads</tspan></text>
</g><g
       transform="translate(0,2.03813)"
       id="g452"><path
         id="path92"
         style="fill:none;stroke:#d6d957;stroke-width:2;stroke-linecap:butt;stroke-linejoin:miter;stroke-miterlimit:10;stroke-dasharray:none;stroke-opacity:1"
         d="m 305.5,148 c 0,0 -53,0 -53,0 -6,0 -12,6 -12,12 0,0 0,12 0,12 0,6 6,12 12,12 0,0 53,0 53,0 6,0 12,-6 12,-12 0,0 0,-12 0,-12 0,-6 -6,-12 -12,-12" /><text
         id="text96"
         style="font-variant:normal;font-weight:normal;font-size:9.99975586px;font-family:'DejaVu Sans';-inkscape-font-specification:DejaVuSans;writing-mode:lr-tb;fill:#000000;fill-opacity:1;fill-rule:nonzero;stroke:none"
         x="248.5"
         y="168.5"><tspan
           id="tspan94"
           y="168.5"
           x="248.5 258.23978 264.23962 270.22946 275.47934 279.11926 285.2291 291.21896 297.21881 302.45868">map_reads1</tspan></text>
</g><g
       transform="translate(-207.7712,-363.89092)"
       id="g482"><path
         id="path154"
         style="fill:none;stroke:#578bd9;stroke-width:2;stroke-linecap:butt;stroke-linejoin:miter;stroke-miterlimit:10;stroke-dasharray:none;stroke-opacity:1"
         d="m 522,580 c 0,0 -60,0 -60,0 -6,0 -12,6 -12,12 0,0 0,12 0,12 0,6 6,12 12,12 0,0 60,0 60,0 6,0 12,-6 12,-12 0,0 0,-12 0,-12 0,-6 -6,-12 -12,-12" /><text
         id="text158"
         style="font-variant:normal;font-weight:normal;font-size:9.99975586px;font-family:'DejaVu Sans';-inkscape-font-specification:DejaVuSans;writing-mode:lr-tb;fill:#000000;fill-opacity:1;fill-rule:nonzero;stroke:none"
         x="458"
         y="600.5"><tspan
           id="tspan156"
           y="600.5"
           x="458 460.98993 466.97977 472.97964 478.96948 481.96942 485.59933 491.70917 497.69904 500.69897 503.68887 509.67874 515.66858 521.66846">indelrealigner</tspan></text>
</g><g
       transform="translate(-82.902551,-291.89092)"
       id="g477"><path
         id="path164"
         style="fill:none;stroke:#57d973;stroke-width:2;stroke-linecap:butt;stroke-linejoin:miter;stroke-miterlimit:10;stroke-dasharray:none;stroke-opacity:1"
         d="m 542,508 c 0,0 -100,0 -100,0 -6,0 -12,6 -12,12 0,0 0,12 0,12 0,6 6,12 12,12 0,0 100,0 100,0 6,0 12,-6 12,-12 0,0 0,-12 0,-12 0,-6 -6,-12 -12,-12" /><text
         id="text168"
         style="font-variant:normal;font-weight:normal;font-size:9.99975586px;font-family:'DejaVu Sans';-inkscape-font-specification:DejaVuSans;writing-mode:lr-tb;fill:#000000;fill-opacity:1;fill-rule:nonzero;stroke:none"
         x="438"
         y="528.5"><tspan
           id="tspan166"
           y="528.5"
           x="438 441.63992 447.74976 453.73962 456.72955 459.71948 465.70932 471.70917 477.69904 481.44894 485.19885 491.1987 494.85861 500.93848 506.92831 510.67822 515.9281 519.55798 525.66785 531.65771 535.40759 541.40747">realignertargetcreator</tspan></text>
</g><path
       id="path484"
       d="m 317.5,168.03813 h 18.75001"
       style="fill:none;fill-rule:evenodd;stroke:#0000f1;stroke-width:0.97500002;stroke-linecap:butt;stroke-linejoin:miter;stroke-miterlimit:4;stroke-dasharray:none;stroke-opacity:1;marker-mid:url(#marker5788);marker-end:url(#marker7004)" /><path
       id="path486"
       d="m 412.25001,168.03813 h 15.02967"
       style="fill:none;fill-rule:evenodd;stroke:#0000f1;stroke-width:0.97500002;stroke-linecap:butt;stroke-linejoin:miter;stroke-miterlimit:4;stroke-dasharray:none;stroke-opacity:1;marker-mid:url(#Arrow1Lstart);marker-end:url(#Arrow1Lend)" /><path
       id="path488"
       d="M 526.27968,168.03813 H 537.3051"
       style="fill:none;fill-rule:evenodd;stroke:#0000f1;stroke-width:0.97500002;stroke-linecap:butt;stroke-linejoin:miter;stroke-miterlimit:4;stroke-dasharray:none;stroke-opacity:1;marker-mid:url(#marker5544);marker-end:url(#marker6598)" /><path
       id="path490"
       d="m 569.46984,186.03813 -10.58372,30.07095"
       style="fill:none;fill-rule:evenodd;stroke:#0000f1;stroke-width:0.97500002;stroke-linecap:butt;stroke-linejoin:miter;stroke-miterlimit:4;stroke-dasharray:none;stroke-opacity:1;marker-mid:url(#marker5596);marker-end:url(#marker6608)" /><path
       id="path492"
       d="M 491.05086,234.10908 H 471.09745"
       style="fill:none;fill-rule:evenodd;stroke:#0000f1;stroke-width:0.97500002;stroke-linecap:butt;stroke-linejoin:miter;stroke-miterlimit:4;stroke-dasharray:none;stroke-opacity:1;marker-mid:url(#marker5654);marker-end:url(#marker6732)" /><path
       id="path494"
       d="M 347.09745,234.10908 H 326.2288"
       style="fill:none;fill-rule:evenodd;stroke:#0000f1;stroke-width:0.97500002;stroke-linecap:butt;stroke-linejoin:miter;stroke-miterlimit:4;stroke-dasharray:none;stroke-opacity:1;marker-mid:url(#marker5718);marker-end:url(#marker6862)" /></g></svg>